# xmcd
#
# Track frame offsets: 
#        150
#        16902
#        33745
#        45517
#        57777
#        73850
#        84675
#        94250
#        100952
#        108737
#        128622
#
# Disc length: 2041 seconds
#
# Revision: 16
# Processed by: cddbd v1.5.2PL0 Copyright (c) Steve Scherf et al.
# Submitted via: ExactAudioCopy v1.3
#
DISCID=9307f70b
DTITLE=Mannheim Steamroller - Christmas
DYEAR=1984
DGENRE=Christmas
TTITLE0=Welsh Ayre - Deck the Halls
TTITLE1=John Hopkins 1857 - We Three Kings
TTITLE2=17th Century France - Bring A Torch, Jeannette, Isabella
TTITLE3=16th Century English) - Coventry Carol
TTITLE4=Traditional English Carol) - Good King Wenceslas
TTITLE5=Ancient English Carol - Wassail, Wassail  [Christmas Sweet]
TTITLE6=Bas-Quercy - Carol of the Birds  [Christmas Sweet]
TTITLE7=15th Century Legend - I Saw Three Ships  [Christmas Sweet]
TTITLE8=English Carol - God Rest Ye Merry, Gentlemen  [Christmas Swee
TTITLE8=t]
TTITLE9=English Carol - God Rest Ye Merry, Getlemen
TTITLE10=Franz Gruber 1818 - Stille Nacht
EXTD=
EXTT0=
EXTT1=
EXTT2=
EXTT3=
EXTT4=
EXTT5=
EXTT6=
EXTT7=
EXTT8=
EXTT9=
EXTT10=
PLAYORDER=
